<?xml version="1.0" encoding="UTF-8"?>
<svg id="Layer_1" xmlns="http://www.w3.org/2000/svg" version="1.1" viewBox="0 0 294.8 113.39">
  <!-- Generator: Adobe Illustrator 29.6.0, SVG Export Plug-In . SVG Version: 2.1.1 Build 207)  -->
  <defs>
    <style>
      .st0 {
        fill: #231f20;
      }

      .st1 {
        fill: #f47b20;
      }
    </style>
  </defs>
  <g>
    <path class="st1" d="M70.93,87.44h-4.48v-4.48l5.4-.08c4.72-.04,7,2.6,7,7.77v15.13h-5.08v-14.89c0-2.08-.52-3.44-2.84-3.44Z"/>
    <path class="st1" d="M83.31,82.88h5.12v12.21h-5.12v-12.21Z"/>
    <path class="st1" d="M92.27,101.18h3.16c2.48,0,3.16-1.32,3.16-4.48v-5.28c0-2.44-.68-3.92-3.16-3.92h-3.16v-4.6h4.68c4.52,0,6.81,3.08,6.81,8.33v5.68c0,5.56-2.16,8.89-6.68,8.89h-4.8v-4.6Z"/>
    <path class="st1" d="M107.8,96.29v-13.41h4.88v13.37h.84c1.12,0,1.28-.56,1.28-1.52v-11.85h4.68v12.25c0,3-1.6,4.84-5.04,4.84h-.76c.76,1.04,1.96,1.56,3.44,1.56h.2c2.68,0,4.36-1.68,4.36-5.24v-13.41h4.92v13.41c0,5.88-3.32,10.01-9.29,10.01h-.2c-5.96,0-9.33-4.12-9.33-10.01Z"/>
    <path class="st1" d="M130.88,90.33h5.12v15.45h-5.12v-15.45ZM137.81,87.44h-6.88v-4.48l7.89-.08c4.72-.04,6.93,2.68,6.93,7.77v15.13h-5.12v-14.85c0-2.08-.52-3.48-2.8-3.48Z"/>
    <path class="st1" d="M161,91.37l-3.24,10.93c-.56,1.96-.56,2.48-.6,3.48h-5.24c0-1.68.16-2.36.64-4.2l3.12-10.17c.6-1.96.88-2.72.88-3.6v-.36h-8.21v-10.05h5.12v5.48h8.41v3.84c0,1.4-.28,2.52-.88,4.64Z"/>
    <path class="st1" d="M172.57,82.88h8.53c4.8,0,6.72,2.04,6.72,7.41v15.49h-15.25v-22.9ZM182.7,101.26v-10.61c0-2.12-.36-3.2-2.6-3.2h-2.4v13.81h5Z"/>
    <path class="st1" d="M192.34,82.88h5.12v12.21h-5.12v-12.21Z"/>
    <path class="st1" d="M201.28,101.26h2.6l-2.2-18.37h5.12l2.24,18.37c1.64-.12,2.4-1,2.4-3.32v-15.05h5.16v15.13c0,5.92-3.2,7.77-7.69,7.77h-7.65v-4.52Z"/>
    <path class="st1" d="M220.83,82.88h4.12c3.48,0,4.24,1.56,4.24,5.32v17.57h-9.25v-4.52h4.12v-11.73c0-1.52-.28-2.08-1.32-2.08h-1.92v-4.56Z"/>
  </g>
  <path class="st0" d="M208.41,39.46c4.16-3.34,6.84-8.45,6.84-14.19,0-10.03-8.16-18.19-18.19-18.19s-18.19,8.16-18.19,18.19c0,2.21,1.79,4,4,4s4-1.79,4-4c0-5.61,4.57-10.18,10.18-10.18s10.18,4.57,10.18,10.18-4.57,10.18-10.18,10.18c-2.21,0-4,1.79-4,4,0,0,0,0,0,0s0,0,0,0c0,2.21,1.79,4,4,4,5.61,0,10.18,4.57,10.18,10.18s-4.57,10.18-10.18,10.18-10.18-4.57-10.18-10.18c0-2.21-1.79-4-4-4s-4,1.79-4,4c0,10.03,8.16,18.19,18.19,18.19s18.19-8.16,18.19-18.19c0-5.74-2.68-10.85-6.84-14.19Z"/>
  <path class="st0" d="M232.24,35.47c-.44,0-.87.04-1.3.07l12.96-22.44c1.11-1.91.45-4.36-1.47-5.47-1.92-1.11-4.37-.45-5.47,1.47l-20.65,35.77s-.04.09-.06.13c-1.4,2.58-2.2,5.53-2.2,8.66,0,10.03,8.16,18.19,18.19,18.19s18.19-8.16,18.19-18.19-8.16-18.19-18.19-18.19ZM232.24,63.83c-5.61,0-10.18-4.57-10.18-10.18s4.57-10.18,10.18-10.18,10.18,4.57,10.18,10.18-4.57,10.18-10.18,10.18Z"/>
  <path class="st0" d="M137.38,71.84c-2.21,0-4-1.79-4-4v-28.38c0-5.61-4.57-10.18-10.18-10.18s-10.18,4.57-10.18,10.18v28.38c0,2.21-1.79,4-4,4s-4-1.79-4-4v-28.38c0-10.03,8.16-18.19,18.19-18.19s18.19,8.16,18.19,18.19v28.38c0,2.21-1.79,4-4,4Z"/>
  <path class="st0" d="M182.89,49.65c-2.21,0-4,1.79-4,4,0,5.61-4.57,10.18-10.18,10.18s-10.18-4.57-10.18-10.18v-24.37h10.18c2.21,0,4-1.79,4-4s-1.79-4-4-4h-10.18v-10.18c0-2.21-1.79-4-4-4s-4,1.79-4,4v10.18h-4.51c-2.21,0-4,1.79-4,4s1.79,4,4,4h4.51v24.37c0,10.03,8.16,18.19,18.19,18.19s18.19-8.16,18.19-18.19c0-2.21-1.79-4-4-4Z"/>
  <path class="st0" d="M49.41,41.94c4.45-3.6,7.31-9.09,7.31-15.25,0-10.81-8.79-19.6-19.6-19.6h-18.22c-5.34,0-9.68,4.34-9.68,9.68v51.07c0,2.21,1.79,4,4,4s4-1.79,4-4v-21.54h21.31c5.61,0,10.18,4.57,10.18,10.18v11.36c0,2.21,1.79,4,4,4s4-1.79,4-4v-11.36c0-5.95-2.88-11.22-7.31-14.54ZM17.22,16.77c0-.92.75-1.67,1.67-1.67h18.22c6.39,0,11.6,5.2,11.6,11.6s-5.2,11.6-11.6,11.6c-.01,0-.02,0-.03,0h-19.86v-21.53Z"/>
  <path class="st0" d="M95.04,49.65c-2.21,0-4,1.79-4,4,0,5.61-4.57,10.18-10.18,10.18s-10.18-4.57-10.18-10.18v-14.19c0-5.61,4.57-10.18,10.18-10.18,4.83,0,8.88,3.38,9.91,7.9l-13.73,7.24c-1.95,1.03-2.7,3.45-1.67,5.41.72,1.36,2.11,2.14,3.54,2.14.63,0,1.27-.15,1.87-.46l16.13-8.51c.06-.03.11-.08.17-.11.12-.07.24-.15.35-.23.1-.08.2-.16.29-.24.1-.09.19-.18.27-.27.09-.1.17-.2.25-.3.08-.1.15-.21.21-.32.07-.11.13-.22.18-.33.06-.12.11-.24.15-.37.04-.12.08-.24.11-.36.03-.12.06-.25.08-.38.02-.14.03-.28.04-.42,0-.07.02-.13.02-.2,0-.1-.01-.19-.01-.29,0-.03,0-.05,0-.08-.2-9.86-8.26-17.82-18.17-17.82s-18.19,8.16-18.19,18.19v14.19c0,10.03,8.16,18.19,18.19,18.19s18.19-8.16,18.19-18.19c0-2.21-1.79-4-4-4Z"/>
  <path class="st0" d="M267.4,7.09c-10.03,0-18.19,8.16-18.19,18.19v28.38c0,10.03,8.16,18.19,18.19,18.19s18.19-8.16,18.19-18.19v-28.38c0-10.03-8.16-18.19-18.19-18.19ZM268.14,62.08h-1.46c-2.39,0-4.65-1.04-6.2-2.86-1.55-1.82-2.22-4.22-1.84-6.58l2.67-16.58-.66-.55c-2.41-2.01-3.8-4.97-3.8-8.11,0-2.91,1.16-5.63,3.27-7.64,1.98-1.89,4.55-2.92,7.28-2.92.17,0,.34,0,.51.01,5.15.24,9.54,4.44,10.01,9.56.31,3.47-1.09,6.87-3.76,9.09l-.66.55,2.67,16.58c.38,2.36-.29,4.76-1.84,6.58-1.55,1.82-3.81,2.86-6.2,2.86Z"/>
</svg>